<svg id="Capa_1" data-name="Capa 1" xmlns="http://www.w3.org/2000/svg" viewBox="0 0 549.92 303.31"><defs><style>.cls-1{font-size:282.14px;fill:#aeadb3;font-family:Aileron-SemiBold, Aileron;font-weight:600;}.cls-2{fill:#dd9c30;}.cls-3{fill:#e1a841;}.cls-4{fill:#e9bf73;}.cls-5{fill:#f2daae;}.cls-6{fill:#fff;}</style></defs><title>nueva campaña cid</title><text class="cls-1" transform="translate(79.52 245.19) rotate(-0.02)">CiD</text><path class="cls-2" d="M46.49,57.13S70.75,55.75,83.32,74s10.62,28.49,11.19,33.14,2.33,18.55,10.56,28.19,13.14,12.12,13.14,12.12-13-12.32-10-27.92,17.46-26.25,17.46-26.25-11.71-8.54-8.06-21.89,14.93-11.1,16.92-10.47,9.83,4.9,9.83,4.9a20.79,20.79,0,0,1,13-.22c6.6,2.26,14.93,11,14.93,11s2.07-5,.3-13.39a24.66,24.66,0,0,0-10-15.19c-3-2.1-30.57-16.26-62.46-12S46.49,57.13,46.49,57.13Z"/><path class="cls-3" d="M7.34,163.24s12.5-32.19,49-37.48,62.38,21.65,62.38,21.65-14.34-10-19.32-22.48a72.33,72.33,0,0,1-5-25.35c-.06-2-1.62-11.41-8-21.7-7.08-11.48-16-15.21-16-15.21s-33,2.68-53.33,33.68C-4.19,128.77,7.34,163.24,7.34,163.24Z"/><path class="cls-4" d="M24.76,139.83s-9,16.87-9.59,29.63.84,23.29,3.3,28.4c3.88,8.06,15.9,25.89,33.34,36.45S89.72,250,89.72,250,65.14,226.35,69,203.23,79.66,169.07,92.7,160s28-10.35,28-10.35a81.85,81.85,0,0,0-17.39-13.83A73.69,73.69,0,0,0,71,125.32C42.2,123.27,24.76,139.83,24.76,139.83Z"/><path class="cls-5" d="M120.71,149.61S71,155.58,71,199.12c0,45.89,42.31,49.46,42.31,49.46s50.34,10.35,86.17-41.17c0,0-25.3,14.25-50.67,6.34s-42-23.36-42-39.86C106.76,155.73,120.71,149.61,120.71,149.61Z"/><path class="cls-4" d="M144.25,158.41c6.17,0,7.56-.12,10.39,3.68s11.8,14.75,14.39,15.79,6,1.52,7.94,0,10.78-8.45,9.88-10.86-8.18-9.66-11.65-11-20.77-7.23-14.58-14.86,16.41,8.32,19.09,12.48,12.19,7.92,16.54,4.81,9.29-7.66,10.78-11.07,2.33-5.81,4.95-8.26,6-5.2,6-7.55S204.61,115.59,201,112,187.19,99,186.51,97.32s.76-6.6-.8-8.61-21-21.16-28.49-23.47a22.45,22.45,0,0,0-13,.23s-7.93-5.33-13.72-5.33c-4.5,0-10.72,2.58-13,11A20.29,20.29,0,0,0,125.63,93a55.14,55.14,0,0,0-9.21,9.19c-4.13,5.25-7.87,12.3-8.49,19.14-1.1,12.17,4.93,20.79,10.21,25.73a41,41,0,0,0,16,9.52A68.63,68.63,0,0,0,144.25,158.41Z"/><path class="cls-6" d="M167.84,97.11c3.87,2.34,4.89,2.71,6.22,2.47s2.2-2.49,2.8-4.11,2.17-3-.61-4.14-6.19-2.35-9.33-1.57-4.42,1.57-4.42,2C162.5,92.7,166.52,96.32,167.84,97.11Z"/><path class="cls-2" d="M204,129.37c1.06-.94,4.27.71,6.36,1.44s7.65.59,7.65.59a3.71,3.71,0,0,1-1,2.58c-1.39,1.92-6.49,5.85-7.07,7.28,0,0,.63-3.06-1.41-4.38-1.47-.94-4.37-3.22-4.88-4.54S203.1,130.14,204,129.37Z"/></svg>